<svg width="583" height="507" xmlns="http://www.w3.org/2000/svg" xmlns:xlink="http://www.w3.org/1999/xlink" xml:space="preserve" overflow="hidden"><g transform="translate(-3 -59)"><path d="M157 225 572 225 572 377 157 377 157 225Z" stroke="#156082" stroke-width="27.5" stroke-miterlimit="8" fill="#46B1E1" fill-rule="evenodd"/><path d="M226.168 72.9999 502.832 72.9999C541.032 72.9999 572 103.976 572 142.186L572 225 157 225 157 142.186C157 103.976 187.968 72.9999 226.168 72.9999Z" stroke="#156082" stroke-width="27.5" stroke-miterlimit="8" fill="#83CBEB" fill-rule="evenodd"/><path d="M157 377 572 377 572 459.814C572 498.024 541.032 529 502.832 529L226.168 529C187.968 529 157 498.024 157 459.814L157 377Z" stroke="#156082" stroke-width="27.5" stroke-miterlimit="8" fill="#156082" fill-rule="evenodd"/><path d="M82.9998 214.501C82.9998 190.476 102.476 171 126.501 171L301.499 171C325.524 171 345 190.476 345 214.501L345 388.499C345 412.524 325.524 432 301.499 432L126.501 432C102.476 432 82.9998 412.524 82.9998 388.499Z" stroke="#0B3041" stroke-width="27.5" stroke-miterlimit="8" fill="#0B3041" fill-rule="evenodd"/><text fill="#FFFFFF" font-family="Quicksand,Quicksand_MSFontService,sans-serif" font-weight="700" font-size="220" transform="matrix(1 0 0 1 135.429 380)">D</text></g></svg>