<svg width="567" height="507" xmlns="http://www.w3.org/2000/svg" xmlns:xlink="http://www.w3.org/1999/xlink" xml:space="preserve" overflow="hidden"><g transform="translate(-1815 -59)"><path d="M1952 225 2368 225 2368 377 1952 377 1952 225Z" stroke="#A02B93" stroke-width="27.5" stroke-miterlimit="8" fill="#D86ECC" fill-rule="evenodd"/><path d="M2021.33 72.9999 2298.67 72.9999C2336.96 72.9999 2368 103.976 2368 142.186L2368 225 1952 225 1952 142.186C1952 103.976 1983.04 72.9999 2021.33 72.9999Z" stroke="#A02B93" stroke-width="27.5" stroke-miterlimit="8" fill="#E59EDD" fill-rule="evenodd"/><path d="M1952 377 2368 377 2368 459.814C2368 498.024 2336.96 529 2298.67 529L2021.33 529C1983.04 529 1952 498.024 1952 459.814L1952 377Z" stroke="#A02B93" stroke-width="27.5" stroke-miterlimit="8" fill="#A02B93" fill-rule="evenodd"/><path d="M1879 214.501C1879 190.476 1898.48 171 1922.5 171L2096.5 171C2120.52 171 2140 190.476 2140 214.501L2140 388.499C2140 412.524 2120.52 432 2096.5 432L1922.5 432C1898.48 432 1879 412.524 1879 388.499Z" stroke="#78206E" stroke-width="27.5" stroke-miterlimit="8" fill="#78206E" fill-rule="evenodd"/><text fill="#FFFFFF" font-family="Quicksand,Quicksand_MSFontService,sans-serif" font-weight="700" font-size="220" transform="matrix(1 0 0 1 1947.76 380)">F</text></g></svg>