<svg width="560" height="507" xmlns="http://www.w3.org/2000/svg" xmlns:xlink="http://www.w3.org/1999/xlink" xml:space="preserve" overflow="hidden"><g transform="translate(-609 -59)"><path d="M947 72.9999 1085.67 72.9999C1123.96 72.9999 1155 103.976 1155 142.186L1155 225 947 225 947 72.9999Z" stroke="#196B24" stroke-width="27.5" stroke-miterlimit="8" fill="#C2F1C8" fill-rule="evenodd"/><path d="M808.335 72.9999 947 72.9999 947 225 739 225 739 142.186C739 103.976 770.042 72.9999 808.335 72.9999Z" stroke="#196B24" stroke-width="27.5" stroke-miterlimit="8" fill="#84E291" fill-rule="evenodd"/><path d="M947 225 1155 225 1155 377 947 377 947 225Z" stroke="#196B24" stroke-width="27.5" stroke-miterlimit="8" fill="#84E291" fill-rule="evenodd"/><path d="M739 225 947 225 947 377 739 377 739 225Z" stroke="#196B24" stroke-width="27.5" stroke-miterlimit="8" fill="#47D45A" fill-rule="evenodd"/><path d="M945 377 1155 377 1155 459.814C1155 498.024 1123.99 529 1085.73 529L945 529 945 377Z" stroke="#196B24" stroke-width="27.5" stroke-miterlimit="8" fill="#47D45A" fill-rule="evenodd"/><path d="M739 377 945 377 945 529 808.397 529C770.07 529 739 498.024 739 459.814L739 377Z" stroke="#196B24" stroke-width="27.5" stroke-miterlimit="8" fill="#196B24" fill-rule="evenodd"/><path d="M683 214.501C683 190.476 702.476 171 726.501 171L901.499 171C925.524 171 945 190.476 945 214.501L945 388.499C945 412.524 925.524 432 901.499 432L726.501 432C702.476 432 683 412.524 683 388.499Z" stroke="#0D3512" stroke-width="27.5" stroke-miterlimit="8" fill="#0D3512" fill-rule="evenodd"/><text fill="#FFFFFF" font-family="Quicksand,Quicksand_MSFontService,sans-serif" font-weight="700" font-size="220" transform="matrix(1 0 0 1 741.809 380)">X</text></g></svg>