<svg width="572" height="507" xmlns="http://www.w3.org/2000/svg" xmlns:xlink="http://www.w3.org/1999/xlink" xml:space="preserve" overflow="hidden"><g transform="translate(-1215 -59)"><path d="M1545 72.9999C1670.92 72.9999 1773 175.079 1773 301L1545 301 1545 72.9999Z" stroke="#E97132" stroke-width="27.5" stroke-miterlimit="8" fill="#F2AA84" fill-rule="evenodd"/><path d="M1544.5 72.9999 1544.5 301 1773 301C1773 426.921 1670.7 529 1544.5 529 1418.3 529 1316 426.921 1316 301 1316 175.079 1418.3 72.9999 1544.5 72.9999Z" stroke="#E97132" stroke-width="27.5" stroke-miterlimit="8" fill="#E97132" fill-rule="evenodd"/><path d="M1283 214.501C1283 190.476 1302.48 171 1326.5 171L1501.5 171C1525.52 171 1545 190.476 1545 214.501L1545 388.499C1545 412.524 1525.52 432 1501.5 432L1326.5 432C1302.48 432 1283 412.524 1283 388.499Z" stroke="#C04F15" stroke-width="27.5" stroke-miterlimit="8" fill="#C04F15" fill-rule="evenodd"/><text fill="#FFFFFF" font-family="Quicksand,Quicksand_MSFontService,sans-serif" font-weight="700" font-size="220" transform="matrix(1 0 0 1 1347.33 380)">P</text></g></svg>